<?xml version="1.0" standalone="no"?>
<!DOCTYPE svg PUBLIC "-//W3C//DTD SVG 20010904//EN"
 "http://www.w3.org/TR/2001/REC-SVG-20010904/DTD/svg10.dtd">
<svg version="1.0" xmlns="http://www.w3.org/2000/svg"
 width="253.000000pt" height="116.000000pt" viewBox="0 0 253.000000 116.000000"
 preserveAspectRatio="xMidYMid meet">

<g transform="translate(0.000000,116.000000) scale(0.100000,-0.100000)"
fill="#000000" stroke="none">
<path d="M786 740 c-81 -63 -91 -68 -106 -55 -22 20 -27 19 -40 -6 -10 -17 -6
-27 22 -65 28 -37 37 -43 58 -38 33 7 34 9 19 33 -7 11 -11 22 -9 24 131 100
180 140 180 146 0 8 -22 31 -29 31 -4 -1 -46 -32 -95 -70z"/>
<path d="M1060 600 c0 -69 3 -91 13 -88 7 3 13 25 15 52 5 81 62 72 62 -10 0
-32 4 -44 15 -44 11 0 15 12 15 49 0 57 -18 81 -60 81 -22 0 -29 5 -32 22 -2
12 -9 23 -15 26 -10 3 -13 -19 -13 -88z"/>
<path d="M1210 675 c0 -8 7 -15 15 -15 8 0 15 7 15 15 0 8 -7 15 -15 15 -8 0
-15 -7 -15 -15z"/>
<path d="M1277 663 c-16 -34 -9 -144 11 -151 8 -3 12 12 12 52 0 43 3 56 15
56 8 0 15 5 15 10 0 6 -7 10 -15 10 -17 0 -20 16 -5 25 15 9 12 25 -5 25 -8 0
-21 -12 -28 -27z"/>
<path d="M1600 663 c0 -27 -2 -28 -39 -25 -33 3 -42 0 -56 -22 -20 -31 -12
-81 15 -96 10 -5 38 -8 62 -7 l43 3 0 84 c0 58 -4 85 -12 88 -9 2 -13 -6 -13
-25z m-10 -63 c20 -38 -8 -78 -45 -64 -21 8 -30 51 -15 69 18 21 47 19 60 -5z"/>
<path d="M913 670 c-75 -31 -45 -160 37 -160 36 0 80 38 80 70 0 17 -6 20 -45
20 -25 0 -45 -4 -45 -10 0 -5 14 -10 30 -10 17 0 30 -4 30 -8 0 -16 -25 -32
-50 -32 -34 0 -50 17 -50 55 0 17 5 36 12 43 15 15 53 15 78 0 24 -15 39 -2
19 17 -19 19 -68 27 -96 15z"/>
<path d="M526 630 c-37 -11 -62 -35 -75 -70 -9 -28 -9 -29 15 -20 13 5 24 7
24 4 0 -2 -18 -27 -40 -55 -57 -72 -54 -79 28 -79 121 0 161 23 190 109 11 32
10 37 -24 77 -37 46 -57 52 -118 34z"/>
<path d="M1210 575 c0 -51 3 -65 15 -65 12 0 15 14 15 65 0 51 -3 65 -15 65
-12 0 -15 -14 -15 -65z"/>
<path d="M1350 585 c0 -63 11 -73 78 -72 l42 0 0 63 c0 50 -3 64 -15 64 -11 0
-15 -12 -15 -45 0 -32 -5 -47 -17 -53 -31 -16 -43 -3 -43 49 0 37 -4 49 -15
49 -12 0 -15 -13 -15 -55z"/>
</g>
</svg>
